<?xml version="1.0" encoding="UTF-8" standalone="no"?>
<svg
   xmlns:dc="http://purl.org/dc/elements/1.1/"
   xmlns:cc="http://creativecommons.org/ns#"
   xmlns:rdf="http://www.w3.org/1999/02/22-rdf-syntax-ns#"
   xmlns:svg="http://www.w3.org/2000/svg"
   xmlns="http://www.w3.org/2000/svg"
   id="SVGRoot"
   version="1.1"
   viewBox="0 0 100 100"
   height="100px"
   width="100px">
  <defs
     id="defs20" />
  <metadata
     id="metadata23">
    <rdf:RDF>
      <cc:Work
         rdf:about="">
        <dc:format>image/svg+xml</dc:format>
        <dc:type
           rdf:resource="http://purl.org/dc/dcmitype/StillImage" />
        <dc:title></dc:title>
      </cc:Work>
    </rdf:RDF>
  </metadata>
  <g
     id="layer1">
    <path
       style="stroke-width:0.16920131"
       id="path2"
       d="M 90.759259,15.446091 H 9.5426173 c -4.485526,0 -8.121665,3.636139 -8.121665,8.121665 v 48.729983 c 0,4.485526 3.636139,8.121664 8.121665,8.121664 H 90.759259 c 4.48552,0 8.12166,-3.636138 8.12166,-8.121664 V 23.567756 c 0,-4.485526 -3.63614,-8.121665 -8.12166,-8.121665 z m 1.35361,56.851648 c 0,0.746348 -0.60727,1.353614 -1.35361,1.353614 H 9.5426173 c -0.746342,0 -1.353608,-0.607266 -1.353608,-1.353614 V 23.567756 c 0,-0.746342 0.607266,-1.353608 1.353608,-1.353608 H 90.759259 c 0.74634,0 1.35361,0.607266 1.35361,1.353608 z M 30.18518,50.301569 v -4.737637 c 0,-1.121301 -0.90912,-2.030414 -2.030415,-2.030414 h -4.737636 c -1.121302,0 -2.030421,0.909113 -2.030421,2.030414 v 4.737637 c 0,1.121295 0.909119,2.030414 2.030421,2.030414 h 4.737636 c 1.121295,0 2.030415,-0.909119 2.030415,-2.030414 z m 16.243329,0 v -4.737637 c 0,-1.121301 -0.909119,-2.030414 -2.030421,-2.030414 h -4.737636 c -1.121295,0 -2.030415,0.909113 -2.030415,2.030414 v 4.737637 c 0,1.121295 0.90912,2.030414 2.030415,2.030414 h 4.737636 c 1.121302,0 2.030421,-0.909119 2.030421,-2.030414 z m 16.243324,0 v -4.737637 c 0,-1.121301 -0.90912,-2.030414 -2.030415,-2.030414 h -4.737636 c -1.121296,0 -2.030415,0.909113 -2.030415,2.030414 v 4.737637 c 0,1.121295 0.909119,2.030414 2.030415,2.030414 h 4.737636 c 1.121295,0 2.030415,-0.909119 2.030415,-2.030414 z m 16.243326,0 v -4.737637 c 0,-1.121301 -0.90912,-2.030414 -2.03041,-2.030414 h -4.737644 c -1.121295,0 -2.030414,0.909113 -2.030414,2.030414 v 4.737637 c 0,1.121295 0.909119,2.030414 2.030414,2.030414 h 4.737644 c 1.12129,0 2.03041,-0.909119 2.03041,-2.030414 z M 22.063515,64.176074 v -4.737636 c 0,-1.121296 -0.90912,-2.030415 -2.030415,-2.030415 h -4.737636 c -1.121296,0 -2.030415,0.909119 -2.030415,2.030415 v 4.737636 c 0,1.121301 0.909119,2.030421 2.030415,2.030421 H 20.0331 c 1.121295,0 2.030415,-0.90912 2.030415,-2.030421 z m 64.973314,0 v -4.737636 c 0,-1.121296 -0.90912,-2.030415 -2.03042,-2.030415 h -4.73764 c -1.12129,0 -2.03041,0.909119 -2.03041,2.030415 v 4.737636 c 0,1.121301 0.90912,2.030421 2.03041,2.030421 h 4.73764 c 1.1213,0 2.03042,-0.90912 2.03042,-2.030421 z M 22.063515,36.427057 v -4.737636 c 0,-1.121295 -0.90912,-2.030415 -2.030415,-2.030415 h -4.737636 c -1.121296,0 -2.030415,0.90912 -2.030415,2.030415 v 4.737636 c 0,1.121302 0.909119,2.030415 2.030415,2.030415 H 20.0331 c 1.121295,0 2.030415,-0.909113 2.030415,-2.030415 z m 16.243329,0 v -4.737636 c 0,-1.121295 -0.909119,-2.030415 -2.030414,-2.030415 h -4.737637 c -1.121301,0 -2.03042,0.90912 -2.03042,2.030415 v 4.737636 c 0,1.121302 0.909119,2.030415 2.03042,2.030415 h 4.737637 c 1.121295,0 2.030414,-0.909113 2.030414,-2.030415 z m 16.24333,0 v -4.737636 c 0,-1.121295 -0.909119,-2.030415 -2.030421,-2.030415 h -4.737636 c -1.121295,0 -2.030415,0.90912 -2.030415,2.030415 v 4.737636 c 0,1.121302 0.90912,2.030415 2.030415,2.030415 h 4.737636 c 1.121302,0 2.030421,-0.909113 2.030421,-2.030415 z m 16.243323,0 v -4.737636 c 0,-1.121295 -0.909119,-2.030415 -2.030414,-2.030415 h -4.737636 c -1.121302,0 -2.030421,0.90912 -2.030421,2.030415 v 4.737636 c 0,1.121302 0.909119,2.030415 2.030421,2.030415 h 4.737636 c 1.121295,0 2.030414,-0.909113 2.030414,-2.030415 z m 16.243332,0 v -4.737636 c 0,-1.121295 -0.90912,-2.030415 -2.03042,-2.030415 h -4.73764 c -1.12129,0 -2.03041,0.90912 -2.03041,2.030415 v 4.737636 c 0,1.121302 0.90912,2.030415 2.03041,2.030415 h 4.73764 c 1.1213,0 2.03042,-0.909113 2.03042,-2.030415 z M 70.455094,63.16087 v -2.707222 c 0,-1.121295 -0.909119,-2.030415 -2.030415,-2.030415 H 31.877191 c -1.121296,0 -2.030415,0.90912 -2.030415,2.030415 v 2.707222 c 0,1.121295 0.909119,2.030414 2.030415,2.030414 h 36.547488 c 1.121296,0 2.030415,-0.909119 2.030415,-2.030414 z" />
  </g>
</svg>
